PathFileType	4	(X/Y/Z)	C:/Users/beibeiliu/ov580/test_trc/User2\sequence.33_training_dense_left.trc
DataRate	CameraRate	NumFrames	NumMarkers	Units	OrigDataRate	OrigDataStartFrame	OrigNumFrames
120	120	13	19	mm	120	1	105
Frame#	Time	ThumbCMC			ThumbMCP			ThumbIP			ThumbTip			IndexMCP			IndexPIP			IndexTip			MiddleMCP			MiddlePIP			MiddleTip			RingMCP			RingPIP			RingTip			PinkyMCP			PinkyPIP			PinkyTip			BackHand1			BackHand2			BackHand3	
		X0	Y0	Z0	X1	Y1	Z1	X2	Y2	Z2	X3	Y3	Z3	X4	Y4	Z4	X5	Y5	Z5	X6	Y6	Z6	X7	Y7	Z7	X8	Y8	Z8	X9	Y9	Z9	X10	Y10	Z10	X11	Y11	Z11	X12	Y12	Z12	X13	Y13	Z13	X14	Y14	Z14	X15	Y15	Z15	X16	Y16	Z16	X17	Y17	Z17	X18	Y18	Z18	
0	0	-254.896	54.8087	-19.61	-244.591	73.8171	-39.5101	-237.486	94.9796	-66.6446	-229.858	112.038	-84.6732	-205.784	22.7486	-83.9239	-188.987	23.5962	-105.932	-166.463	21.1614	-130.752	-175.182	17.1643	-68.8821	-148.497	38.0934	-53.6291	-169.519	50.3917	-20.8888	-162.114	11.2534	-48.4656	-149.297	31.8367	-31.5234	-178.493	39.2544	-9.42735	-159.527	-1.29057	-25.9134	-155.181	24.7054	-10.2103	-187.115	30.3227	-0.648021	-220.469	-13.8686	-29.4321	-247.543	-12.8408	0.574687	-249.718	13.7886	-30.0615	
1	0.00833333	-256.855	41.0796	-22.1129	-256.308	60.9438	-44.4812	-250.937	78.5456	-70.6481	-250.538	97.8908	-91.4522	-207.588	15.9159	-88.4086	-191.746	17.0535	-113.218	-174.073	16.826	-137.096	-175.667	19.0213	-77.3816	-154.459	43.4187	-68.5355	-173.509	55.3844	-31.9345	-159.445	12.3446	-54.1872	-152.385	40.8255	-43.0241	-183.795	42.2608	-16.9058	-157.892	4.70563	-33.3532	-157.108	37.2739	-17.3391	-184.992	33.6662	-5.27522	-210.907	-19.0044	-25.1277	-234.782	-20.8523	-0.534672	-244.545	3.44353	-30.8278	
2	0.0166667	-257.617	27.1969	-21.4729	-260.79	43.1461	-44.6318	-264.82	59.9292	-79.7267	-266.116	73.2726	-94.7546	-218.229	0.735142	-98.186	-205.55	-1.7424	-118.277	-196.385	-1.64011	-144.962	-183.792	3.10287	-85.8502	-164.172	34.1478	-85.9074	-178.475	50.7127	-52.3575	-168.053	4.95026	-69.4142	-158.693	37.103	-59.1087	-181.85	37.8873	-31.4405	-154.735	0.449174	-46.8969	-155.553	33.58	-36.3681	-181.833	28.8737	-20.5236	-204.354	-28.4247	-26.8898	-223.971	-27.321	1.28646	-241.434	-10.7897	-26.2757	
3	0.025	-258.645	14.7796	-27.2483	-261.265	26.627	-49.6057	-270.604	38.7007	-80.4283	-276.795	51.1244	-97.449	-230.766	-24.9225	-97.0325	-227.703	-29.7134	-125.071	-216.082	-35.1918	-145.861	-198.474	-20.4043	-93.3843	-175.609	10.2618	-101.77	-182.148	30.429	-68.6566	-176.335	-16.2511	-82.7524	-164.184	14.0494	-79.6587	-180.931	25.4503	-53.3312	-164.921	-19.3512	-60.5765	-159.699	14.7913	-61.566	-180.062	20.4329	-36.5824	-205.836	-41.0246	-30.9496	-216.934	-39.325	2.94389	-242.776	-24.3659	-26.8329	
4	0.0333333	-256.009	5.32235	-23.2881	-264.246	15.1515	-53.1477	-276.775	26.3177	-81.2216	-284.018	36.423	-101.614	-248.714	-41.5644	-91.9427	-246.966	-50.716	-116.869	-244.523	-58.6813	-144.325	-212.204	-42.5324	-101.328	-190.271	-14.5328	-111.858	-188.12	9.66758	-85.5068	-185.717	-43.155	-85.7875	-174.299	-11.9561	-93.9979	-183.789	4.81731	-63.6558	-168.974	-43.0787	-67.6581	-165.654	-12.9336	-77.2561	-179.548	4.37958	-52.1426	-213.508	-56.6367	-29.1495	-224.468	-46.8584	1.3237	-246.54	-34.3914	-24.0167	
5	0.0416667	-258.376	3.71511	-27.8006	-264.547	14.3663	-52.9864	-276.786	24.0462	-84.6535	-284.534	37.0917	-103.902	-265.685	-44.7056	-88.2268	-265.986	-59.4932	-116.491	-269.534	-66.0733	-140.065	-228.338	-58.1707	-98.1368	-206.918	-38.2189	-117.874	-194.767	-10.557	-92.2383	-203.965	-61.8233	-87.5072	-185.414	-36.4454	-100.507	-186.486	-13.3314	-76.4029	-188.54	-63.7084	-71.0261	-176.415	-39.0071	-86.1855	-181.95	-14.9601	-63.6927	-229.99	-60.2579	-25.5682	-231.678	-50.7122	4.60633	-258.111	-33.2356	-21.7113	
6	0.05	-262.804	11.0295	-27.3533	-267.367	22.6777	-53.455	-273.903	34.038	-80.1929	-280.8	44.3976	-102.498	-285.011	-43.2545	-87.4088	-293.29	-48.1354	-108.693	-298.831	-60.8488	-133.874	-255.112	-63.0687	-96.0253	-234.785	-51.9833	-119.874	-210.992	-22.7514	-99.2226	-236.029	-68.1006	-86.5887	-211.87	-55.0013	-105.686	-202.954	-24.9358	-82.2203	-213.767	-77.7845	-71.4521	-195.733	-54.6334	-90.7013	-194.239	-30.4671	-71.5344	-248.148	-57.9677	-24.4631	-244.972	-50.1556	7.61689	-268.77	-29.7161	-16.8049	
7	0.0583333	-262.647	19.0023	-21.9868	-264.847	31.2946	-49.3458	-275.087	47.6712	-80.6184	-276.553	59.6729	-100.51	-309.481	-25.4559	-79.621	-324.399	-30.1963	-105.19	-333.152	-40.5988	-125.834	-289.626	-54.8012	-92.3568	-268.226	-54.0796	-118.297	-236.757	-28.9452	-102.417	-271.665	-66.8384	-86.2674	-245.166	-64.393	-106.416	-225.455	-41.469	-88.2375	-253.01	-83.3249	-74.0153	-232.735	-70.2664	-94.3029	-217.572	-43.8432	-75.8013	-271.381	-57.6403	-21.2478	-264.841	-46.5874	7.05011	-284.169	-16.7805	-15.2482	
8	0.0666667	-258.335	25.048	-24.3279	-257.484	37.8789	-51.1357	-259.816	53.797	-78.5541	-260.404	68.6048	-102.247	-318.601	2.8747	-74.0826	-339.221	2.55557	-99.799	-353.23	1.87684	-125.28	-313.791	-29.5203	-87.0501	-291.983	-40.4573	-117.654	-257.235	-30.616	-103.37	-301.079	-51.6115	-86.3143	-277.357	-56.2663	-107.218	-249.13	-39.4255	-87.65	-288.421	-71.4855	-69.2026	-266.734	-67.4196	-94.9402	-240.853	-50.1886	-78.8625	-294.276	-39.7393	-22.5273	-280.585	-34.9056	9.94487	-288.009	-1.56871	-13.8392	
9	0.075	-250.467	27.9815	-22.1625	-242.291	44.9369	-50.1023	-237.64	60.974	-76.2446	-233.865	67.6064	-99.1495	-315.082	32.7963	-73.9457	-332.944	36.7012	-93.6753	-349.204	40.9225	-119.523	-322.497	1.14939	-89.0162	-306.547	-13.6991	-117.962	-271.43	-21.2931	-101.717	-318.434	-22.5471	-87.1099	-300.37	-39.4318	-106.59	-268.207	-35.0392	-86.3701	-313.075	-44.1703	-68.0715	-289.98	-53.6102	-93.6103	-264.658	-44.9251	-76.8216	-309.095	-19.049	-20.3687	-295.861	-16.3174	7.56044	-287.33	17.3495	-12.71	
10	0.0833333	-240.195	29.3326	-24.6552	-228.348	37.9045	-49.998	-218.415	51.0944	-79.4311	-208.469	59.8718	-101.059	-301.357	45.7333	-77.9715	-312.829	57.6303	-99.5901	-328.857	63.2403	-126.518	-316.24	16.7233	-92.4558	-303.948	-2.85735	-116.916	-274.758	-21.3351	-95.9856	-321.837	-10.4739	-83.9695	-305.638	-27.496	-104.997	-273.987	-30.9076	-81.693	-320.758	-26.8737	-67.5221	-301.22	-43.1336	-91.605	-275.886	-41.3634	-72.282	-309.915	-0.962485	-20.5197	-296.529	-0.824764	5.90295	-281.286	27.0526	-14.5518	
11	0.0916667	-227.596	17.044	-23.0981	-209.066	24.1421	-49.5385	-196.21	31.6223	-79.2188	-187.829	32.4907	-100.755	-278.02	45.008	-86.3548	-286.312	55.3931	-111.704	-296.43	60.2216	-134.4	-299.524	18.2725	-93.5287	-292.77	-10.4004	-116.5	-266.354	-27.976	-88.5872	-312.106	-4.72622	-83.4055	-299.111	-26.5854	-102.819	-274.452	-38.0195	-77.8894	-316.491	-20.6534	-72.1365	-300.641	-41.4806	-86.3032	-275.488	-45.4169	-61.8959	-302.621	10.3638	-23.6438	-290.481	8.22462	7.58438	-264.159	29.1866	-20.9178	
12	0.1	-216.419	8.11053	-27.2895	-199.774	3.73562	-50.67	-179.105	5.64892	-79.5625	-166.508	4.02011	-98.9152	-256.506	28.094	-96.9121	-259.185	32.7128	-122.529	-267.14	34.3348	-146.027	-281.263	3.09758	-99.6862	-277.489	-31.3992	-111.684	-259.515	-45.5663	-81.059	-300.682	-16.6539	-84.6692	-284.701	-44.3104	-95.2209	-265.005	-48.6615	-65.8012	-308.623	-28.467	-64.7515	-292.359	-54.3652	-75.6125	-267.157	-50.3272	-49.838	-285.87	10.5493	-30.3362	-275.465	12.9886	5.57287	-249.892	23.0314	-22.884	
